<?xml version="1.0" standalone="no"?><!DOCTYPE svg PUBLIC "-//W3C//DTD SVG 1.1//EN" "http://www.w3.org/Graphics/SVG/1.1/DTD/svg11.dtd"><svg t="1652101857115" class="icon" viewBox="0 0 1024 1024" version="1.1" xmlns="http://www.w3.org/2000/svg" p-id="4038" xmlns:xlink="http://www.w3.org/1999/xlink" width="48" height="48"><defs><style type="text/css">@font-face { font-family: feedback-iconfont; src: url("//at.alicdn.com/t/font_1031158_u69w8yhxdu.woff2?t=1630033759944") format("woff2"), url("//at.alicdn.com/t/font_1031158_u69w8yhxdu.woff?t=1630033759944") format("woff"), url("//at.alicdn.com/t/font_1031158_u69w8yhxdu.ttf?t=1630033759944") format("truetype"); }
</style></defs><path d="M876.8 499.2v-25.6-19.2s0-6.4-6.4-6.4h-19.2c0 19.2 0 38.4 6.4 57.6 6.4-6.4 12.8-6.4 19.2-6.4z m-134.4 0v-32V448v-6.4h-12.8c0 19.2 6.4 32 6.4 51.2l6.4 6.4z m153.6 0V448h-25.6v51.2h25.6z m-134.4-12.8c0-19.2 0-32-6.4-51.2v-6.4h-12.8c0 19.2 6.4 38.4 6.4 57.6h12.8z m134.4 166.4v-51.2-64-12.8s0-6.4-6.4-6.4H851.2c0 12.8 0 32 6.4 44.8 0 12.8 0 32 6.4 44.8 0 12.8 0 32 6.4 44.8h25.6z m-115.2-44.8c0-12.8 0-19.2-6.4-32 0-12.8 0-25.6-6.4-38.4v-19.2V512h-32c6.4 44.8 19.2 89.6 25.6 140.8 12.8 0 19.2 0 32-6.4v-12.8c-12.8-6.4-12.8-19.2-12.8-25.6z m57.6-12.8c0-12.8 0-19.2-6.4-32 0-12.8 0-25.6-6.4-44.8v-38.4c0-19.2 0-38.4-6.4-57.6V384c0-6.4 0-6.4-6.4-6.4h-38.4c19.2 83.2 25.6 172.8 32 256h32v-12.8-25.6z m-115.2-12.8l-38.4-19.2c-25.6-12.8-57.6-12.8-83.2-12.8h-19.2c0-19.2-6.4-44.8-6.4-64v-51.2-96c0-6.4 0-6.4-6.4-6.4-19.2 12.8-38.4 19.2-57.6 25.6 6.4 19.2 6.4 38.4 12.8 64 0 19.2 6.4 38.4 6.4 51.2 0 12.8 6.4 32 6.4 44.8 0 12.8 6.4 32 6.4 44.8 0 12.8 6.4 32 6.4 44.8 0 12.8 0 19.2 6.4 32v25.6h12.8c19.2 0 38.4 0 57.6-6.4 12.8 0 25.6-6.4 38.4-12.8 19.2-6.4 38.4-19.2 51.2-32 6.4-6.4 12.8-12.8 12.8-19.2 6.4 6.4 0-6.4-6.4-12.8zM480 499.2v-25.6-19.2s0-6.4-6.4-6.4h-19.2c0 19.2 0 38.4 6.4 57.6 6.4-6.4 12.8-6.4 19.2-6.4z m-121.6 0v-32V448v-6.4c-12.8 6.4-19.2 6.4-25.6 6.4 0 19.2 6.4 32 6.4 51.2h19.2z m153.6 0V448h-25.6v51.2H512z m-134.4-12.8c0-19.2 0-32-6.4-51.2v-6.4h-12.8c0 19.2 6.4 38.4 6.4 57.6h12.8z m121.6 166.4v-51.2-64-12.8s0-6.4-6.4-6.4C486.4 512 473.6 512 467.2 512h-12.8c0 12.8 0 32 6.4 44.8 0 12.8 0 32 6.4 44.8 0 12.8 0 32 6.4 44.8 6.4 6.4 19.2 6.4 25.6 6.4z m-102.4-44.8c0-12.8 0-19.2-6.4-32 0-12.8 0-25.6-6.4-38.4v-19.2V512h-38.4c6.4 44.8 19.2 89.6 25.6 140.8 12.8 0 19.2 0 32-6.4v-12.8c-6.4-6.4-6.4-19.2-6.4-25.6z m57.6-12.8v-32C448 550.4 448 537.6 448 524.8v-38.4c0-19.2 0-38.4-6.4-57.6v-38.4c0-6.4 0-6.4-6.4-6.4h-44.8c19.2 83.2 25.6 172.8 32 256h32v-12.8-32z m-115.2-12.8l-38.4-19.2c-25.6-12.8-57.6-12.8-83.2-12.8h-19.2c-6.4-19.2-6.4-44.8-6.4-64v-51.2-96c0-6.4 0-6.4-6.4-6.4-19.2 12.8-38.4 19.2-57.6 25.6v6.4c6.4 19.2 6.4 38.4 12.8 64 0 19.2 6.4 38.4 6.4 51.2 0 12.8 6.4 32 6.4 44.8 0 12.8 6.4 32 6.4 44.8 0 12.8 6.4 32 6.4 44.8 0 12.8 0 19.2 6.4 32v25.6h12.8c19.2 0 38.4 0 57.6-6.4 12.8 0 25.6-6.4 38.4-12.8 19.2-6.4 38.4-19.2 51.2-32 6.4-6.4 12.8-12.8 12.8-19.2 6.4 0 0-12.8-6.4-19.2z m-89.6-512h524.8c96 0 172.8 76.8 172.8 172.8V768c0 96-76.8 172.8-172.8 172.8H249.6c-96 0-172.8-76.8-172.8-172.8V249.6c-6.4-96 76.8-179.2 172.8-179.2z" fill="#F08198" p-id="4039"></path><path d="M614.4 646.4c0-19.2-6.4-38.4-6.4-57.6 12.8 0 51.2 19.2 57.6 19.2-19.2 12.8-32 25.6-51.2 38.4m-377.6 0c0-19.2-6.4-38.4-6.4-57.6 12.8 0 51.2 19.2 57.6 19.2-19.2 12.8-32 25.6-51.2 38.4" fill="#F08198" p-id="4040"></path></svg>