<?xml version="1.0" standalone="no"?><!DOCTYPE svg PUBLIC "-//W3C//DTD SVG 1.1//EN" "http://www.w3.org/Graphics/SVG/1.1/DTD/svg11.dtd"><svg t="1652101939623" class="icon" viewBox="0 0 1121 1024" version="1.1" xmlns="http://www.w3.org/2000/svg" p-id="7133" xmlns:xlink="http://www.w3.org/1999/xlink" width="52.546875" height="48"><defs><style type="text/css">@font-face { font-family: feedback-iconfont; src: url("//at.alicdn.com/t/font_1031158_u69w8yhxdu.woff2?t=1630033759944") format("woff2"), url("//at.alicdn.com/t/font_1031158_u69w8yhxdu.woff?t=1630033759944") format("woff"), url("//at.alicdn.com/t/font_1031158_u69w8yhxdu.ttf?t=1630033759944") format("truetype"); }
</style></defs><path d="M1108.01815019 152.23370838l-89.72681904-4.89068759S984.35530601 25.85425236 828.60518734 14.95438794C672.85605155 4.05747208 570.94772487 10.89912728 570.94772487 10.89912728s115.53266578 75.04689342 69.23232192 208.96190045c-34.40189852 72.22708179-88.82848936 131.24065795-146.85822745 199.06356549l-383.7165077 446.83547013c357.19612521-5.34378385 567.78465104-8.01715006 631.76852607-8.01715006 179.43398097 0 331.07773051-158.77731274 324.87296549-335.43767627-4.26657452-121.41308858-42.14974625-148.84556072-55.1715951-202.01999401-13.01693457-53.17541615 13.04248882-137.97419909 96.94294209-168.05153463z" fill="#31CC79" p-id="7134"></path><path d="M491.75514811 420.36840754C303.9413435 636.79804197 8.77812571 981.15119797 8.77812571 981.15119797c531.00326003 142.20833939 775.65656505-202.93110079 813.9672788-322.41582742 51.36204825-160.1985214-21.21001572-238.36892872-62.2835355-263.86222751-139.26272229-86.43818547-242.58930905-4.60369387-268.7067209 25.49329879z" fill="#93E65C" p-id="7135"></path><path d="M494.36266302 415.3735373c29.79329038-32.14919435 131.07848684-106.92875115 266.17881727-22.74130417 41.07745119 25.59355001 113.65344659 104.07945386 62.28746691 264.931574-14.88042808 46.60502898-60.9026239 127.39474547-142.75284119 200.40712857-84.8744628 0.58283314-275.36654789 3.09009681-571.48510096 7.53161958L474.61218731 438.31730962a8405.73366256 8405.73366256 0 0 1 18.93470588-22.06215119z" fill="#60DB69" p-id="7136"></path></svg>